<?xml version="1.0" standalone="no"?>
<!DOCTYPE svg PUBLIC "-//W3C//DTD SVG 20010904//EN"
 "http://www.w3.org/TR/2001/REC-SVG-20010904/DTD/svg10.dtd">
<svg version="1.0" xmlns="http://www.w3.org/2000/svg"
 width="580.000000pt" height="580.000000pt" viewBox="0 0 580.000000 580.000000"
 preserveAspectRatio="xMidYMid meet">
<metadata>
Created by potrace 1.11, written by Peter Selinger 2001-2013
</metadata>
<g transform="translate(0.000000,580.000000) scale(0.100000,-0.100000)"
fill="#000000" stroke="none">
<path d="M2518 4928 l-3 -803 -802 -3 -803 -2 0 -2020 0 -2020 1985 0 1985 0
0 366 c0 343 -1 365 -17 360 -67 -21 -205 -47 -298 -57 -60 -6 -111 -12 -111
-13 -1 0 -63 -113 -139 -251 -76 -137 -143 -260 -151 -271 -12 -21 -15 -21
-94 -8 -45 7 -115 20 -155 30 -66 15 -75 20 -79 43 -3 14 -19 152 -37 306 -17
154 -32 280 -33 281 0 1 -50 27 -111 58 -60 31 -148 84 -193 117 l-84 59 -286
-111 c-214 -84 -289 -109 -301 -102 -19 12 -151 173 -174 213 -16 27 -16 27
152 284 l168 258 -43 107 c-24 59 -56 156 -72 216 l-29 109 -69 23 c-38 12
-169 57 -291 99 l-223 76 0 142 c0 77 3 150 6 161 4 16 38 30 177 73 405 125
427 133 427 147 0 31 74 233 115 314 l43 86 -160 268 -161 267 27 39 c36 52
175 201 187 201 8 0 257 -103 544 -226 30 -12 35 -10 115 43 47 30 134 78 193
107 75 35 109 57 112 71 3 11 26 151 51 310 25 160 51 293 56 296 14 9 248 49
284 49 28 0 33 -8 171 -283 l141 -284 76 -6 c67 -6 200 -29 249 -43 16 -5 17
41 17 860 l0 866 -1180 0 -1180 0 -2 -802z"/>
<path d="M1665 4970 l-750 -750 753 0 752 0 0 750 c0 413 -1 750 -3 750 -1 0
-340 -337 -752 -750z"/>
<path d="M4266 3163 c-140 -29 -265 -96 -372 -196 -111 -103 -183 -222 -226
-373 -29 -103 -31 -295 -4 -394 71 -259 264 -465 514 -546 81 -27 98 -29 242
-29 143 1 161 3 235 28 44 16 113 47 153 69 l72 42 0 638 0 638 -42 27 c-155
98 -384 137 -572 96z"/>
</g>
</svg>
