<?xml version="1.0" standalone="no"?>
<!DOCTYPE svg PUBLIC "-//W3C//DTD SVG 20010904//EN"
 "http://www.w3.org/TR/2001/REC-SVG-20010904/DTD/svg10.dtd">
<svg version="1.0" xmlns="http://www.w3.org/2000/svg"
 width="300.000000pt" height="300.000000pt" viewBox="0 0 300.000000 300.000000"
 preserveAspectRatio="xMidYMid meet">
<metadata>
Created by potrace 1.11, written by Peter Selinger 2001-2013
</metadata>
<g transform="translate(0.000000,300.000000) scale(0.100000,-0.100000)"
fill="#000000" stroke="none">
<path d="M2379 2760 c-72 -82 -135 -150 -140 -150 -5 0 -32 15 -61 34 -140 89
-318 149 -508 172 -137 17 -375 4 -529 -30 -164 -36 -363 -142 -494 -263 -284
-262 -414 -669 -374 -1168 10 -124 14 -145 41 -260 35 -142 87 -270 151 -371
20 -30 36 -58 38 -63 2 -8 -27 -42 -165 -193 -43 -47 -88 -98 -99 -112 l-20
-26 32 -28 c19 -15 65 -56 104 -91 38 -34 84 -74 102 -88 l32 -24 38 42 c21
23 43 47 48 53 6 6 44 49 85 95 41 47 82 92 90 101 14 14 22 12 90 -28 188
-111 390 -162 655 -166 500 -8 893 214 1092 616 30 62 79 194 89 243 58 272
64 541 19 785 -3 14 -7 40 -10 58 -17 105 -110 333 -174 427 l-20 29 47 51
c138 149 228 249 234 259 9 16 4 21 -77 91 -94 80 -123 106 -152 133 -13 12
-26 22 -28 22 -2 0 -64 -67 -136 -150z m-765 -414 c98 -14 272 -88 283 -121 3
-9 -42 -62 -176 -210 -20 -22 -88 -98 -151 -170 -63 -71 -117 -132 -120 -135
-3 -3 -43 -48 -89 -100 -131 -149 -276 -312 -394 -443 -69 -77 -71 -78 -83
-55 -29 57 -56 234 -58 378 -5 368 93 610 308 759 126 87 297 122 480 97z
m517 -478 c40 -150 45 -451 10 -648 -52 -290 -226 -492 -481 -556 -83 -21
-226 -21 -315 0 -87 21 -235 99 -235 125 0 3 10 17 23 31 63 69 221 246 292
325 43 50 86 97 95 106 8 8 40 44 70 78 30 35 71 80 90 100 19 20 50 55 69 76
19 22 57 65 85 96 28 31 65 71 81 90 161 183 193 218 202 219 1 0 7 -19 14
-42z"/>
</g>
</svg>
